HIERARCHY
ROOT Hips
{
	OFFSET -3.958830 18.904000 13.208200
	CHANNELS 6 Xposition Yposition Zposition Zrotation Yrotation Xrotation 
	JOINT LHipJoint
	{
		OFFSET 0.000000 0.000000 0.000000
		CHANNELS 3 Zrotation Yrotation Xrotation
		JOINT LeftUpLeg
		{
			OFFSET 1.800000 -1.400000 0.085000
			CHANNELS 3 Zrotation Yrotation Xrotation
			JOINT LeftLeg
			{
				OFFSET 2.215000 -6.000000 0.000000
				CHANNELS 3 Zrotation Yrotation Xrotation
				JOINT LeftFoot
				{
					OFFSET 2.500000 -6.900000 0.000000
					CHANNELS 3 Zrotation Yrotation Xrotation
					JOINT LeftToeBase
					{
						OFFSET 0.200000 -0.500000 1.950000
						CHANNELS 3 Zrotation Yrotation Xrotation
						End Site
						{
							OFFSET 0.000000 0.000000 0.000000
						}
					}
				}
			}
		}
	}
	JOINT RHipJoint
	{
		OFFSET 0.000000 0.000000 0.000000
		CHANNELS 3 Zrotation Yrotation Xrotation
		JOINT RightUpLeg
		{
			OFFSET -1.800000 -1.400000 0.085000
			CHANNELS 3 Zrotation Yrotation Xrotation
			JOINT RightLeg
			{
				OFFSET -2.215000 -6.000000 0.000000
				CHANNELS 3 Zrotation Yrotation Xrotation
				JOINT RightFoot
				{
					OFFSET -2.500000 -6.900000 0.000000
					CHANNELS 3 Zrotation Yrotation Xrotation
					JOINT RightToeBase
					{
						OFFSET -0.200000 -0.500000 1.950000
						CHANNELS 3 Zrotation Yrotation Xrotation
						End Site
						{
							OFFSET 0.000000 0.000000 0.000000
						}
					}
				}
			}
		}
	}
	JOINT LowerBack
	{
		OFFSET 0.000000 0.000000 0.000000
		CHANNELS 3 Zrotation Yrotation Xrotation
		JOINT Spine
		{
			OFFSET -0.087000 1.940000 -0.288900
			CHANNELS 3 Zrotation Yrotation Xrotation
			JOINT Spine1
			{
				OFFSET 0.000000 1.950000 0.060000
				CHANNELS 3 Zrotation Yrotation Xrotation
				JOINT Neck
				{
					OFFSET 0.000000 0.000000 0.000000
					CHANNELS 3 Zrotation Yrotation Xrotation
					JOINT Neck1
					{
						OFFSET 0.000000 1.600000 0.340000
						CHANNELS 3 Zrotation Yrotation Xrotation
						JOINT Head
						{
							OFFSET 0.000000 1.667000 -0.240000
							CHANNELS 3 Zrotation Yrotation Xrotation
							End Site
							{
								OFFSET 0.000000 0.000000 0.000000
							}
						}
					}
				}
				JOINT LeftShoulder
				{
					OFFSET 0.000000 0.000000 0.000000
					CHANNELS 3 Zrotation Yrotation Xrotation
					JOINT LeftArm
					{
						OFFSET 2.700000 1.550000 -0.730000
						CHANNELS 3 Zrotation Yrotation Xrotation
						JOINT LeftForeArm
						{
							OFFSET 5.450000 0.000000 0.000000
							CHANNELS 3 Zrotation Yrotation Xrotation
							JOINT LeftHand
							{
								OFFSET 3.450000 0.000000 0.000000
								CHANNELS 3 Zrotation Yrotation Xrotation
								JOINT LeftHandIndex1
								{
									OFFSET 0.750000 0.000000 0.000000
									CHANNELS 3 Zrotation Yrotation Xrotation
									End Site
									{
										OFFSET 0.000000 0.000000 0.000000
									}
								}
							}
						}
					}
				}
				JOINT RightShoulder
				{
					OFFSET 0.000000 0.000000 0.000000
					CHANNELS 3 Zrotation Yrotation Xrotation
					JOINT RightArm
					{
						OFFSET -2.700000 1.550000 -0.730000
						CHANNELS 3 Zrotation Yrotation Xrotation
						JOINT RightForeArm
						{
							OFFSET -5.450000 0.000000 0.000000
							CHANNELS 3 Zrotation Yrotation Xrotation
							JOINT RightHand
							{
								OFFSET -3.450000 0.000000 0.000000
								CHANNELS 3 Zrotation Yrotation Xrotation
								JOINT RightHandIndex1
								{
									OFFSET -0.750000 0.000000 0.000000
									CHANNELS 3 Zrotation Yrotation Xrotation
									End Site
									{
										OFFSET 0.000000 0.000000 0.000000
									}
								}
							}
						}
					}
				}
			}
		}
	}
}
MOTION
Frames: 6
Frame Time: 0.016667
-0.318920 16.403550 -0.346450 12.722888 -42.937211 -8.014279 -14.875118 11.866557 4.533443 -1.155446 -2.787106 -46.823183 6.348304 9.056827 50.848093 -0.076288 8.816753 1.528483 0.790210 0.197000 0.710460 18.510070 -11.433706 2.785986 -8.145092 3.680892 -7.072149 12.709053 -7.741097 20.274269 -0.417187 -5.080492 2.965490 0.336520 0.150700 0.181080 -4.974129 1.398214 -7.844157 17.749122 8.714631 22.424401 -5.507416 12.188954 4.968923 0.045160 -7.457897 -6.383056 -13.226561 2.649987 30.417548 -9.886160 2.593430 -7.586080 -26.910363 2.451736 1.642224 -13.382118 23.881652 -2.430223 4.202897 -13.443478 -0.993905 -3.669796 3.095205 0.571620 0.235580 -0.183670 0.329130 24.089411 8.151635 3.666518 32.616819 7.172813 -2.522247 112.901902 60.439609 68.450563 2.016327 -1.841122 -0.331580 0.185860 -0.297900 -0.466420 
-0.304190 16.333230 -0.319850 11.112119 -42.841305 -5.854467 -14.812121 11.680055 4.517240 -0.555340 -2.695068 -47.376795 5.922517 8.433020 47.304479 -0.266223 8.167106 1.752612 0.763050 0.144730 0.720160 18.596714 -11.522507 2.852423 -6.583360 3.759904 -7.888782 12.564352 -7.690824 20.667340 -0.392497 -5.063766 2.965985 0.330880 0.179710 0.186350 -5.290106 1.869914 -7.768863 19.946857 9.026217 20.414957 -5.955751 12.359427 5.195040 0.123717 -6.908052 -6.227684 -11.994887 2.210638 30.160424 -10.606980 3.066400 -6.455000 -25.698773 2.784902 1.368331 -11.969407 21.756083 -1.585509 3.807942 -10.547339 -0.963572 -3.757471 3.013289 0.564190 0.275210 -0.219010 0.312440 22.661106 7.038198 3.726749 34.867133 7.089375 -1.981710 109.122601 61.088835 65.093096 2.034394 -1.828668 -0.366670 0.185660 -0.278410 -0.490630 
-0.296670 16.193990 -0.277900 10.804282 -44.188393 -4.354927 -14.752819 11.593778 4.328865 0.288009 -2.144289 -46.285657 3.620353 8.067041 40.124943 -0.590642 6.973694 2.195993 0.736530 0.105690 0.701970 18.652844 -11.705460 2.913221 -5.881709 3.874384 -8.573608 12.172145 -7.618675 21.178700 -0.352343 -5.105102 2.952248 0.361610 0.279660 0.182490 -5.625817 2.343682 -7.520325 20.611156 10.335790 17.085848 -5.336840 12.793011 5.832259 -0.505924 -7.070980 -5.333380 -12.062033 2.379935 29.789464 -10.251020 2.895550 -5.316990 -23.987849 4.187291 0.768125 -10.830451 18.665793 -0.787720 6.324865 -8.407192 -1.027394 -3.943405 2.899908 0.540090 0.349770 -0.288940 0.313080 21.994692 5.502948 3.214423 36.249378 8.578287 -0.057308 98.861018 61.128419 56.118878 1.997288 -1.902294 -0.432400 0.250890 -0.235840 -0.498600 
-0.269400 16.039650 -0.244850 9.391025 -44.292634 -1.899204 -14.671682 11.326306 4.197132 1.127241 -1.938921 -45.508138 0.573625 7.237380 31.234867 -0.869018 5.484027 2.742987 0.723120 0.089560 0.735830 18.758096 -11.881524 3.007349 -4.248730 3.827581 -8.850141 12.225570 -7.620294 21.296500 -0.345227 -5.174893 2.923259 0.376000 0.291070 0.198140 -5.981021 3.051643 -7.329976 21.701897 12.121261 13.764612 -4.883014 13.726431 6.246228 -0.349859 -5.370571 -4.546636 -8.661013 1.033685 29.601748 -11.947420 3.701700 -4.241890 -21.881067 5.177237 -0.006323 -8.929976 15.242517 -0.516441 5.562755 -9.117713 -1.001679 -4.026186 2.914647 0.498900 0.411710 -0.316500 0.289330 19.562818 2.972360 3.167817 40.640408 8.122075 0.566968 87.519710 61.541455 47.183793 1.947259 -2.016588 -0.447940 0.231590 -0.234740 -0.525480 
-0.252100 15.896840 -0.219790 8.339156 -42.822872 0.896225 -14.635591 10.918945 4.183029 0.885086 -2.692070 -45.567538 -1.446774 5.791919 22.574967 -1.051926 4.161871 3.278264 0.677150 0.051880 0.709000 18.877024 -11.861772 2.997575 -3.155356 3.715600 -9.426187 13.197749 -7.803934 20.816258 -0.309754 -5.309643 2.875737 0.387590 0.380200 0.242880 -6.187619 3.518344 -7.138228 21.300262 13.325026 9.401173 -3.990833 13.634199 6.244598 -0.372427 -3.884428 -3.495988 -5.613549 0.592575 28.535790 -12.707030 4.837530 -1.412710 -19.229120 6.506099 -0.774537 -8.526730 10.237833 -0.307121 6.917586 -9.199578 -1.002860 -4.234960 2.960684 0.379710 0.540350 -0.395960 0.283930 17.219657 0.124185 2.556891 45.570407 8.467019 1.034342 69.286122 58.358500 33.348725 1.756573 -2.251937 -0.453550 0.200670 -0.211040 -0.517320 
-0.216910 15.785310 -0.185970 6.609238 -39.463565 3.464880 -14.588364 10.567340 4.177837 -0.109626 -3.727860 -45.585819 -1.308258 4.273303 16.172449 -1.201216 3.267582 3.670829 0.634440 0.020120 0.683390 19.016226 -11.761561 2.968238 -1.886176 3.245769 -9.562634 14.523862 -7.951167 19.269819 -0.284473 -5.372429 2.869531 0.408610 0.466840 0.265600 -6.331836 3.775365 -7.017452 22.585133 12.882053 5.918273 -4.436096 12.497745 6.175913 -0.199352 -3.342754 -2.809408 -4.383681 0.275101 27.527607 -13.721610 5.396730 0.237210 -17.042927 7.326498 -1.521040 -9.214497 4.905774 -0.038761 8.263240 -8.109055 -1.056829 -4.434305 2.904328 0.297120 0.652240 -0.465640 0.281290 14.944124 -1.923411 1.990861 49.887095 9.058786 1.068872 55.130765 51.696150 22.182814 1.625569 -2.296287 -0.483590 0.209410 -0.184630 -0.516270 
